<svg width="200" height="200" viewBox="0 0 200 200" fill="none" xmlns="http://www.w3.org/2000/svg">
    <circle cx="100" cy="100" r="100" fill="#403D43" />
    <path
        d="M104.512 142.926C115.015 138.172 139.79 123.486 139.79 90.731V70.9426C139.79 65.3677 139.79 62.5761 138.704 60.4447C137.748 58.568 136.218 57.0433 134.341 56.0871C132.208 55 129.419 55 123.833 55H75.959C70.3731 55 67.5782 55 65.4447 56.0871C63.568 57.0433 62.0433 58.568 61.0871 60.4447C60 62.5782 60 65.3731 60 70.959V90.731C60 123.486 84.7738 138.172 95.2772 142.926C96.3902 143.43 96.9497 143.681 98.2099 143.898C99.0048 144.034 100.79 144.034 101.585 143.898C102.841 143.682 103.394 143.431 104.5 142.931L104.512 142.926Z"
        stroke="white" stroke-width="9.97375" stroke-linecap="round" stroke-linejoin="round" />
    <path
        d="M124.219 87.1484L118.203 81.1328L92.5 106.826L81.7969 96.1328L75.7812 102.148L92.5 118.867L124.219 87.1484Z"
        fill="white" />
</svg>