<svg width="940" height="165" viewBox="0 0 940 165" fill="none" xmlns="http://www.w3.org/2000/svg">
    <path
        d="M82.0882 154.026C99.4599 146.163 140.438 121.873 140.438 67.6959V34.9658C140.438 25.7448 140.438 21.1275 138.642 17.6022C137.061 14.4981 134.53 11.9763 131.426 10.3947C127.898 8.59668 123.284 8.59668 114.045 8.59668H34.8616C25.6226 8.59668 20.9996 8.59668 17.4708 10.3947C14.3668 11.9763 11.8449 14.4981 10.2634 17.6022C8.46533 21.131 8.46533 25.7539 8.46533 34.9929V67.6959C8.46533 121.873 49.4413 146.163 66.8139 154.026C68.6549 154.86 69.5804 155.276 71.6648 155.634C72.9795 155.86 75.9324 155.86 77.2472 155.634C79.3241 155.277 80.2397 154.862 82.0692 154.034L82.0882 154.026Z"
        stroke="white" stroke-width="16.4966" stroke-linecap="round" stroke-linejoin="round" />
    <path fill-rule="evenodd" clip-rule="evenodd"
        d="M99.9693 48.8995C99.9693 51.4619 102.046 53.5392 104.609 53.5392C107.171 53.5392 109.249 51.4619 109.249 48.8995C109.249 46.3371 107.171 44.2598 104.609 44.2598C102.046 44.2598 99.9693 46.3371 99.9693 48.8995ZM104.609 58.1788C99.484 58.1788 95.3296 54.0243 95.3296 48.8995C95.3296 43.7746 99.484 39.6201 104.609 39.6201C109.734 39.6201 113.888 43.7746 113.888 48.8995C113.888 54.0243 109.734 58.1788 104.609 58.1788Z"
        fill="white" />
    <path fill-rule="evenodd" clip-rule="evenodd"
        d="M35.0151 51.2193C35.0151 57.6254 40.2083 62.8185 46.6143 62.8185C48.3947 62.8185 50.0814 62.4174 51.589 61.7006C51.6837 61.8568 51.7986 62.0042 51.9335 62.139L60.5144 70.7199C59.0534 73.1571 58.2135 76.0091 58.2135 79.0574C58.2135 88.0259 65.4839 95.2963 74.4524 95.2963C76.2396 95.2963 77.9595 95.0077 79.5676 94.4741L80.7944 96.928C78.365 98.6011 76.7722 101.403 76.7722 104.576C76.7722 109.701 80.9266 113.855 86.0516 113.855C91.1766 113.855 95.331 109.701 95.331 104.576C95.331 99.4506 91.1766 95.2963 86.0516 95.2963C85.7598 95.2963 85.4712 95.3097 85.1858 95.3362L83.716 92.3965C87.9321 89.4633 90.6913 84.5823 90.6913 79.0574C90.6913 75.4013 89.4831 72.0278 87.4444 69.3136C87.5307 69.2486 87.6133 69.1772 87.6922 69.0988L94.6517 62.139C95.5574 61.2331 95.5574 59.7643 94.6517 58.8583C93.7456 57.9523 92.2767 57.9523 91.3705 58.8583L84.411 65.8176C84.3326 65.8965 84.2611 65.9791 84.1962 66.0654C81.482 64.0266 78.1085 62.8185 74.4524 62.8185C70.2127 62.8185 66.3524 64.4434 63.4602 67.1042L55.2826 58.9267C57.1059 56.8777 58.2135 54.1778 58.2135 51.2193C58.2135 44.8133 53.0204 39.6201 46.6143 39.6201C40.2083 39.6201 35.0151 44.8133 35.0151 51.2193ZM46.6143 58.1788C42.7707 58.1788 39.6548 55.063 39.6548 51.2193C39.6548 47.3757 42.7707 44.2598 46.6143 44.2598C50.458 44.2598 53.5738 47.3757 53.5738 51.2193C53.5738 55.063 50.458 58.1788 46.6143 58.1788ZM86.0516 109.215C83.4891 109.215 81.4119 107.138 81.4119 104.576C81.4119 102.013 83.4891 99.9359 86.0516 99.9359C88.6141 99.9359 90.6913 102.013 90.6913 104.576C90.6913 107.138 88.6141 109.215 86.0516 109.215ZM74.4524 90.6566C68.0464 90.6566 62.8532 85.4634 62.8532 79.0574C62.8532 72.6514 68.0464 67.4582 74.4524 67.4582C80.8584 67.4582 86.0516 72.6514 86.0516 79.0574C86.0516 85.4634 80.8584 90.6566 74.4524 90.6566Z"
        fill="white" />
    <path
        d="M284.746 65.3352C284.746 70.5107 283.499 75.3628 281.003 79.8914C278.6 84.42 274.765 88.0706 269.497 90.8433C264.321 93.6159 257.76 95.0022 249.811 95.0022H233.592V132.155H214.183V35.3909H249.811C257.297 35.3909 263.674 36.6848 268.942 39.2726C274.21 41.8604 278.138 45.4185 280.726 49.9471C283.406 54.4758 284.746 59.6051 284.746 65.3352ZM248.98 79.3369C254.34 79.3369 258.314 78.1354 260.902 75.7325C263.49 73.2371 264.783 69.7714 264.783 65.3352C264.783 55.9083 259.516 51.1948 248.98 51.1948H233.592V79.3369H248.98ZM369.921 92.0909C369.921 94.8636 369.736 97.3589 369.366 99.577H313.221C313.683 105.122 315.624 109.466 319.043 112.608C322.463 115.751 326.668 117.322 331.659 117.322C338.868 117.322 343.997 114.226 347.047 108.033H367.98C365.762 115.427 361.511 121.527 355.226 126.333C348.941 131.046 341.224 133.403 332.075 133.403C324.681 133.403 318.027 131.786 312.112 128.551C306.289 125.224 301.715 120.556 298.387 114.549C295.153 108.542 293.535 101.61 293.535 93.7545C293.535 85.8063 295.153 78.8286 298.387 72.8212C301.622 66.8139 306.151 62.1929 311.973 58.9582C317.796 55.7234 324.496 54.1061 332.075 54.1061C339.376 54.1061 345.892 55.6772 351.622 58.8195C357.444 61.9618 361.927 66.4442 365.069 72.2667C368.304 77.9968 369.921 84.6049 369.921 92.0909ZM349.819 86.5457C349.727 81.555 347.925 77.5809 344.413 74.6235C340.901 71.5736 336.603 70.0486 331.52 70.0486C326.714 70.0486 322.648 71.5274 319.321 74.4848C316.086 77.3499 314.099 81.3702 313.36 86.5457H349.819ZM455.482 92.0909C455.482 94.8636 455.297 97.3589 454.928 99.577H398.782C399.244 105.122 401.185 109.466 404.605 112.608C408.024 115.751 412.229 117.322 417.22 117.322C424.429 117.322 429.558 114.226 432.608 108.033H453.541C451.323 115.427 447.072 121.527 440.787 126.333C434.503 131.046 426.786 133.403 417.636 133.403C410.242 133.403 403.588 131.786 397.673 128.551C391.851 125.224 387.276 120.556 383.949 114.549C380.714 108.542 379.097 101.61 379.097 93.7545C379.097 85.8063 380.714 78.8286 383.949 72.8212C387.183 66.8139 391.712 62.1929 397.534 58.9582C403.357 55.7234 410.057 54.1061 417.636 54.1061C424.937 54.1061 431.453 55.6772 437.183 58.8195C443.005 61.9618 447.488 66.4442 450.63 72.2667C453.865 77.9968 455.482 84.6049 455.482 92.0909ZM435.381 86.5457C435.288 81.555 433.486 77.5809 429.974 74.6235C426.462 71.5736 422.165 70.0486 417.081 70.0486C412.276 70.0486 408.209 71.5274 404.882 74.4848C401.647 77.3499 399.66 81.3702 398.921 86.5457H435.381ZM489.057 67.276C491.552 63.2095 494.787 60.021 498.761 57.7105C502.828 55.4 507.449 54.2447 512.624 54.2447V74.6235H507.495C501.395 74.6235 496.774 76.056 493.632 78.921C490.582 81.786 489.057 86.7768 489.057 93.8931V132.155H469.649V55.3538H489.057V67.276ZM559.107 133.126C552.36 133.126 546.26 131.97 540.807 129.66C535.447 127.349 531.196 124.022 528.053 119.678C524.911 115.335 523.294 110.205 523.201 104.29H543.996C544.273 108.265 545.659 111.407 548.155 113.717C550.743 116.028 554.255 117.183 558.691 117.183C563.219 117.183 566.778 116.12 569.365 113.995C571.953 111.777 573.247 108.911 573.247 105.4C573.247 102.534 572.369 100.178 570.613 98.3293C568.857 96.4809 566.639 95.0484 563.959 94.0318C561.371 92.9227 557.767 91.7213 553.145 90.4274C546.861 88.579 541.732 86.7768 537.757 85.0208C533.876 83.1724 530.502 80.4459 527.637 76.8415C524.865 73.1447 523.478 68.2464 523.478 62.1467C523.478 56.4166 524.911 51.4259 527.776 47.1745C530.641 42.9232 534.661 39.6885 539.837 37.4704C545.012 35.1599 550.927 34.0046 557.582 34.0046C567.563 34.0046 575.65 36.4537 581.842 41.352C588.127 46.1579 591.592 52.9046 592.239 61.5922H570.89C570.705 58.265 569.273 55.5386 566.593 53.4129C564.005 51.1948 560.539 50.0858 556.195 50.0858C552.406 50.0858 549.356 51.0562 547.046 52.997C544.828 54.9379 543.719 57.7567 543.719 61.4535C543.719 64.0413 544.55 66.2132 546.214 67.9692C547.97 69.6327 550.096 71.019 552.591 72.1281C555.179 73.1447 558.783 74.3462 563.404 75.7325C569.689 77.5809 574.818 79.4293 578.792 81.2777C582.766 83.1261 586.186 85.8988 589.051 89.5956C591.916 93.2924 593.348 98.1445 593.348 104.152C593.348 109.327 592.008 114.133 589.328 118.569C586.648 123.006 582.72 126.564 577.545 129.244C572.369 131.832 566.223 133.126 559.107 133.126ZM653.428 54.2447C659.25 54.2447 664.426 55.5386 668.954 58.1264C673.483 60.6217 676.995 64.3648 679.49 69.3555C682.078 74.2538 683.372 80.1687 683.372 87.1002V132.155H663.964V89.7342C663.964 83.6345 662.439 78.9672 659.389 75.7325C656.339 72.4054 652.18 70.7418 646.912 70.7418C641.552 70.7418 637.3 72.4054 634.158 75.7325C631.108 78.9672 629.583 83.6345 629.583 89.7342V132.155H610.175V29.5684H629.583V64.9193C632.078 61.5921 635.406 59.0044 639.565 57.156C643.723 55.2151 648.344 54.2447 653.428 54.2447ZM711.671 46.2041C708.251 46.2041 705.386 45.1413 703.076 43.0156C700.858 40.7975 699.749 38.0711 699.749 34.8364C699.749 31.6017 700.858 28.9215 703.076 26.7958C705.386 24.5777 708.251 23.4687 711.671 23.4687C715.091 23.4687 717.909 24.5777 720.127 26.7958C722.438 28.9215 723.593 31.6017 723.593 34.8364C723.593 38.0711 722.438 40.7975 720.127 43.0156C717.909 45.1413 715.091 46.2041 711.671 46.2041ZM721.236 55.3538V132.155H701.828V55.3538H721.236ZM811.807 92.0909C811.807 94.8636 811.622 97.3589 811.252 99.577H755.107C755.569 105.122 757.51 109.466 760.929 112.608C764.349 115.751 768.554 117.322 773.545 117.322C780.754 117.322 785.883 114.226 788.933 108.033H809.866C807.648 115.427 803.397 121.527 797.112 126.333C790.827 131.046 783.11 133.403 773.961 133.403C766.567 133.403 759.913 131.786 753.998 128.551C748.175 125.224 743.6 120.556 740.273 114.549C737.039 108.542 735.421 101.61 735.421 93.7545C735.421 85.8063 737.039 78.8286 740.273 72.8212C743.508 66.8139 748.037 62.1929 753.859 58.9582C759.682 55.7234 766.382 54.1061 773.961 54.1061C781.262 54.1061 787.778 55.6772 793.508 58.8195C799.33 61.9618 803.812 66.4442 806.955 72.2667C810.19 77.9968 811.807 84.6049 811.807 92.0909ZM791.705 86.5457C791.613 81.555 789.811 77.5809 786.299 74.6235C782.787 71.5736 778.489 70.0486 773.406 70.0486C768.6 70.0486 764.534 71.5274 761.207 74.4848C757.972 77.3499 755.985 81.3702 755.245 86.5457H791.705ZM845.382 29.5684V132.155H825.973V29.5684H845.382ZM859.566 93.4773C859.566 85.7139 861.091 78.8286 864.141 72.8212C867.283 66.8139 871.535 62.1929 876.895 58.9582C882.256 55.7234 888.217 54.1061 894.779 54.1061C899.769 54.1061 904.529 55.2151 909.058 57.4332C913.586 59.5589 917.191 62.4239 919.871 66.0283V29.5684H939.556V132.155H919.871V120.788C917.468 124.577 914.094 127.627 909.751 129.937C905.407 132.248 900.37 133.403 894.64 133.403C888.17 133.403 882.256 131.739 876.895 128.412C871.535 125.085 867.283 120.418 864.141 114.411C861.091 108.311 859.566 101.333 859.566 93.4773ZM920.009 93.7545C920.009 89.0411 919.085 85.0208 917.237 81.6936C915.388 78.2741 912.893 75.6863 909.751 73.9303C906.608 72.0819 903.235 71.1577 899.631 71.1577C896.026 71.1577 892.699 72.0357 889.649 73.7917C886.599 75.5477 884.104 78.1354 882.163 81.555C880.315 84.8821 879.39 88.8562 879.39 93.4773C879.39 98.0983 880.315 102.165 882.163 105.677C884.104 109.096 886.599 111.73 889.649 113.579C892.791 115.427 896.119 116.351 899.631 116.351C903.235 116.351 906.608 115.473 909.751 113.717C912.893 111.869 915.388 109.281 917.237 105.954C919.085 102.534 920.009 98.468 920.009 93.7545Z"
        fill="white" />
</svg>