<svg
    width="594"
    height="208"
    viewBox="0 0 594 208"
    fill="none"
    xmlns="http://www.w3.org/2000/svg"
>
    <path
        d="M82.6228 174.871C99.9946 167.008 140.973 142.718 140.973 88.5406V55.8105C140.973 46.5896 140.973 41.9722 139.177 38.4469C137.595 35.3428 135.065 32.821 131.961 31.2395C128.432 29.4414 123.819 29.4414 114.58 29.4414H35.3963C26.1572 29.4414 21.5343 29.4414 18.0055 31.2395C14.9014 32.821 12.3796 35.3428 10.798 38.4469C9 41.9757 9 46.5986 9 55.8377V88.5406C9 142.718 49.976 167.008 67.3486 174.871C69.1896 175.705 70.1151 176.12 72.1994 176.478C73.5142 176.704 76.4671 176.704 77.7819 176.478C79.8588 176.122 80.7744 175.707 82.6038 174.879L82.6228 174.871Z"
        stroke="white"
        stroke-width="16.4966"
        stroke-linecap="round"
        stroke-linejoin="round"
    />
    <path
        fill-rule="evenodd"
        clip-rule="evenodd"
        d="M100.504 69.7442C100.504 72.3066 102.581 74.3839 105.144 74.3839C107.706 74.3839 109.783 72.3066 109.783 69.7442C109.783 67.1818 107.706 65.1045 105.144 65.1045C102.581 65.1045 100.504 67.1818 100.504 69.7442ZM105.144 79.0236C100.019 79.0236 95.8643 74.869 95.8643 69.7442C95.8643 64.6194 100.019 60.4648 105.144 60.4648C110.269 60.4648 114.423 64.6194 114.423 69.7442C114.423 74.869 110.269 79.0236 105.144 79.0236Z"
        fill="white"
    />
    <path
        fill-rule="evenodd"
        clip-rule="evenodd"
        d="M35.5498 72.064C35.5498 78.4701 40.7429 83.6632 47.149 83.6632C48.9294 83.6632 50.6161 83.2621 52.1237 82.5453C52.2184 82.7015 52.3332 82.8489 52.4682 82.9838L61.0491 91.5646C59.5881 94.0018 58.7482 96.8538 58.7482 99.9021C58.7482 108.871 66.0186 116.141 74.9871 116.141C76.7743 116.141 78.4942 115.852 80.1023 115.319L81.329 117.773C78.8997 119.446 77.3069 122.247 77.3069 125.42C77.3069 130.545 81.4613 134.7 86.5863 134.7C91.7113 134.7 95.8656 130.545 95.8656 125.42C95.8656 120.295 91.7113 116.141 86.5863 116.141C86.2944 116.141 86.0058 116.154 85.7205 116.181L84.2506 113.241C88.4667 110.308 91.2259 105.427 91.2259 99.9021C91.2259 96.246 90.0178 92.8725 87.9791 90.1583C88.0654 90.0934 88.148 90.0219 88.2269 89.9435L95.1864 82.9838C96.092 82.0778 96.092 80.609 95.1864 79.703C94.2802 78.797 92.8113 78.797 91.9052 79.703L84.9457 86.6623C84.8673 86.7412 84.7958 86.8238 84.7309 86.9101C82.0166 84.8713 78.6431 83.6632 74.9871 83.6632C70.7473 83.6632 66.8871 85.2881 63.9949 87.9489L55.8173 79.7715C57.6406 77.7224 58.7482 75.0226 58.7482 72.064C58.7482 65.658 53.555 60.4648 47.149 60.4648C40.7429 60.4648 35.5498 65.658 35.5498 72.064ZM47.149 79.0236C43.3054 79.0236 40.1895 75.9077 40.1895 72.064C40.1895 68.2204 43.3054 65.1045 47.149 65.1045C50.9926 65.1045 54.1085 68.2204 54.1085 72.064C54.1085 75.9077 50.9926 79.0236 47.149 79.0236ZM86.5863 130.06C84.0238 130.06 81.9466 127.983 81.9466 125.42C81.9466 122.858 84.0238 120.781 86.5863 120.781C89.1488 120.781 91.2259 122.858 91.2259 125.42C91.2259 127.983 89.1488 130.06 86.5863 130.06ZM74.9871 111.501C68.5811 111.501 63.3879 106.308 63.3879 99.9021C63.3879 93.4961 68.5811 88.3029 74.9871 88.3029C81.3931 88.3029 86.5863 93.4961 86.5863 99.9021C86.5863 106.308 81.3931 111.501 74.9871 111.501Z"
        fill="white"
    />
    <path
        d="M244.108 154.248C237.823 154.248 232.185 153.139 227.195 150.921C222.204 148.61 218.23 145.514 215.272 141.632C212.407 137.751 210.836 133.453 210.559 128.74H230.106C230.476 131.697 231.908 134.146 234.403 136.087C236.991 138.028 240.18 138.998 243.969 138.998C247.666 138.998 250.531 138.259 252.564 136.78C254.69 135.301 255.753 133.407 255.753 131.096C255.753 128.601 254.459 126.753 251.871 125.551C249.376 124.257 245.355 122.871 239.81 121.392C234.08 120.006 229.367 118.573 225.67 117.095C222.065 115.616 218.923 113.352 216.243 110.302C213.655 107.252 212.361 103.139 212.361 97.9635C212.361 93.7122 213.563 89.8305 215.966 86.3185C218.461 82.8066 221.973 80.0339 226.502 78.0007C231.123 75.9674 236.529 74.9508 242.721 74.9508C251.871 74.9508 259.172 77.2613 264.625 81.8824C270.078 86.411 273.081 92.5569 273.636 100.32H255.059C254.782 97.2704 253.488 94.8674 251.178 93.1115C248.96 91.263 245.956 90.3388 242.167 90.3388C238.655 90.3388 235.928 90.9858 233.988 92.2797C232.139 93.5736 231.215 95.3758 231.215 97.6863C231.215 100.274 232.509 102.261 235.097 103.647C237.684 104.941 241.705 106.281 247.158 107.668C252.703 109.054 257.278 110.487 260.882 111.965C264.486 113.444 267.582 115.755 270.17 118.897C272.85 121.947 274.237 126.013 274.329 131.096C274.329 135.533 273.081 139.507 270.586 143.019C268.183 146.531 264.671 149.303 260.05 151.336C255.522 153.277 250.207 154.248 244.108 154.248ZM360.824 86.1799C360.824 91.3555 359.576 96.2075 357.081 100.736C354.678 105.265 350.843 108.915 345.575 111.688C340.399 114.461 333.837 115.847 325.889 115.847H309.669V153H290.261V56.2356H325.889C333.375 56.2356 339.752 57.5295 345.02 60.1173C350.288 62.7051 354.216 66.2633 356.804 70.7919C359.484 75.3205 360.824 80.4498 360.824 86.1799ZM325.057 100.182C330.418 100.182 334.392 98.9802 336.979 96.5772C339.567 94.0819 340.861 90.6161 340.861 86.1799C340.861 76.753 335.593 72.0396 325.057 72.0396H309.669V100.182H325.057ZM445.999 112.936C445.999 115.708 445.814 118.204 445.444 120.422H389.299C389.761 125.967 391.702 130.311 395.121 133.453C398.541 136.595 402.746 138.166 407.736 138.166C414.945 138.166 420.075 135.07 423.125 128.878H444.058C441.84 136.272 437.588 142.372 431.304 147.178C425.019 151.891 417.302 154.248 408.152 154.248C400.759 154.248 394.104 152.63 388.19 149.396C382.367 146.068 377.792 141.401 374.465 135.394C371.23 129.387 369.613 122.455 369.613 114.599C369.613 106.651 371.23 99.6733 374.465 93.666C377.7 87.6586 382.228 83.0376 388.051 79.8029C393.873 76.5682 400.574 74.9508 408.152 74.9508C415.454 74.9508 421.969 76.522 427.699 79.6643C433.522 82.8066 438.004 87.289 441.147 93.1115C444.381 98.8415 445.999 105.45 445.999 112.936ZM425.897 107.39C425.805 102.4 424.003 98.4256 420.491 95.4682C416.979 92.4183 412.681 90.8934 407.598 90.8934C402.792 90.8934 398.725 92.3721 395.398 95.3295C392.164 98.1946 390.177 102.215 389.437 107.39H425.897ZM531.56 112.936C531.56 115.708 531.375 118.204 531.005 120.422H474.86C475.322 125.967 477.263 130.311 480.682 133.453C484.102 136.595 488.307 138.166 493.298 138.166C500.507 138.166 505.636 135.07 508.686 128.878H529.619C527.401 136.272 523.15 142.372 516.865 147.178C510.58 151.891 502.863 154.248 493.714 154.248C486.32 154.248 479.666 152.63 473.751 149.396C467.928 146.068 463.353 141.401 460.026 135.394C456.792 129.387 455.174 122.455 455.174 114.599C455.174 106.651 456.792 99.6733 460.026 93.666C463.261 87.6586 467.79 83.0376 473.612 79.8029C479.435 76.5682 486.135 74.9508 493.714 74.9508C501.015 74.9508 507.531 76.522 513.261 79.6643C519.083 82.8066 523.565 87.289 526.708 93.1115C529.943 98.8415 531.56 105.45 531.56 112.936ZM511.458 107.39C511.366 102.4 509.564 98.4256 506.052 95.4682C502.54 92.4183 498.242 90.8934 493.159 90.8934C488.353 90.8934 484.287 92.3721 480.96 95.3295C477.725 98.1946 475.738 102.215 474.998 107.39H511.458ZM565.135 88.1207C567.63 84.0542 570.865 80.8657 574.839 78.5552C578.905 76.2447 583.526 75.0894 588.702 75.0894V95.4682H583.572C577.473 95.4682 572.852 96.9007 569.709 99.7657C566.659 102.631 565.135 107.621 565.135 114.738V153H545.726V76.1985H565.135V88.1207Z"
        fill="white"
    />
</svg>